<svg width="267" height="264" viewBox="0 0 267 264" fill="none" xmlns="http://www.w3.org/2000/svg">
<g opacity="0.4">
<g opacity="0.7">
<path d="M57.5938 151.994V98.4894L67.988 88.2656L95.7627 111.61V151.994H57.5938Z" fill="#D3D5E2"/>
<path d="M59.127 151.994V100.492L68.6859 90.6511L94.2287 113.122V151.994H59.127Z" fill="#D9DBE7"/>
<path d="M21.6387 109.224V152.164H88.2639V127.968L46.1758 82.8129L21.6387 109.224Z" fill="#D3D5E2"/>
<path d="M21.6387 111.269V151.994H88.4343V129.672L46.0782 85.7096L21.6387 111.269Z" fill="#D9DBE7"/>
<path d="M52.3104 121.493L67.4758 105.816H48.5617L32.0332 121.493H52.3104Z" fill="#D2D5E4"/>
<path d="M45.3242 121.493L60.3191 105.816H48.5617L32.0332 121.493H45.3242Z" fill="#D2D5E4"/>
<path d="M37.9971 121.493L53.3328 105.816H48.5617L32.0332 121.493H37.9971Z" fill="#D2D5E4"/>
<path d="M52.6517 151.824V121.493H31.8633V151.824H52.6517Z" fill="#D2D4E2"/>
<rect x="37.6562" y="128.991" width="4.08953" height="6.13429" fill="#D9DBE7"/>
<rect x="42.7676" y="128.991" width="4.08953" height="6.13429" fill="#D9DBE7"/>
<path d="M128.989 152.164H95.7617V123.879L113.824 112.632L128.989 123.879V152.164Z" fill="#DCDFEF"/>
<rect x="55.7188" y="125.923" width="4.77111" height="7.15667" fill="#DCDFEF"/>
<rect x="55.7188" y="133.421" width="4.77111" height="7.15667" fill="#DCDFEF"/>
<rect x="61.1719" y="125.923" width="4.77111" height="7.15667" fill="#DCDFEF"/>
<rect x="61.1719" y="133.421" width="4.77111" height="7.15667" fill="#DCDFEF"/>
<rect x="66.623" y="125.923" width="4.77111" height="7.15667" fill="#DCDFEF"/>
<rect x="66.623" y="133.421" width="4.77111" height="7.15667" fill="#DCDFEF"/>
<rect x="72.0762" y="125.923" width="4.77111" height="7.15667" fill="#DCDFEF"/>
<rect x="72.0762" y="133.421" width="4.77111" height="7.15667" fill="#DCDFEF"/>
<rect x="103.432" y="130.695" width="3.06715" height="4.77111" fill="#E1E4F2"/>
<rect x="103.432" y="135.806" width="3.06715" height="4.77111" fill="#E1E4F2"/>
<rect x="107.18" y="130.695" width="3.06715" height="4.77111" fill="#E1E4F2"/>
<rect x="107.18" y="135.806" width="3.06715" height="4.77111" fill="#E1E4F2"/>
<rect x="115.357" y="130.695" width="3.06715" height="4.77111" fill="#E1E4F2"/>
<rect x="115.357" y="135.806" width="3.06715" height="4.77111" fill="#E1E4F2"/>
<rect x="119.105" y="130.695" width="3.06715" height="4.77111" fill="#E1E4F2"/>
<rect x="119.105" y="135.806" width="3.06715" height="4.77111" fill="#E1E4F2"/>
<rect x="37.6562" y="135.806" width="4.08953" height="6.13429" fill="#D9DBE7"/>
<rect x="42.7676" y="135.806" width="4.08953" height="6.13429" fill="#D9DBE7"/>
<path d="M113.654 110.758L95.5918 122.004V123.879L113.654 112.803L129.16 123.879L130.012 122.345L113.654 110.758Z" fill="#D3D5E2"/>
</g>
<g opacity="0.7">
<rect x="144.969" y="123.058" width="7.51906" height="9.45756" fill="#C4C4C4"/>
<rect x="144.969" y="132.926" width="7.51906" height="9.45756" fill="#C4C4C4"/>
<rect x="154.367" y="123.058" width="7.51906" height="9.45756" fill="#C4C4C4"/>
<rect x="154.367" y="132.926" width="7.51906" height="9.45756" fill="#C4C4C4"/>
<rect x="224.391" y="106.199" width="5.6393" height="6.57917" fill="#C4C4C4"/>
<rect x="224.391" y="113.189" width="5.6393" height="6.57917" fill="#C4C4C4"/>
<rect x="230.971" y="106.199" width="5.6393" height="6.57917" fill="#C4C4C4"/>
<rect x="230.971" y="113.189" width="5.6393" height="6.57917" fill="#C4C4C4"/>
<rect x="224.861" y="128.815" width="5.6393" height="6.57917" fill="#C4C4C4"/>
<rect x="173.635" y="123.058" width="11.2786" height="6.99037" fill="#C4C4C4"/>
<rect x="173.635" y="123.058" width="11.2786" height="1.2336" fill="#828282"/>
<rect x="173.635" y="135.805" width="11.2786" height="6.99037" fill="#C4C4C4"/>
<rect x="173.635" y="135.805" width="11.2786" height="1.2336" fill="#828282"/>
<rect x="193.846" y="135.805" width="11.2786" height="6.99037" fill="#C4C4C4"/>
<rect x="193.846" y="135.805" width="11.2786" height="1.2336" fill="#828282"/>
<rect x="193.846" y="123.058" width="11.2786" height="6.99037" fill="#C4C4C4"/>
<rect x="193.846" y="123.058" width="11.2786" height="1.2336" fill="#828282"/>
<path d="M112.545 111.768L139.097 83.9939L165.648 108.89V153.075H112.545V111.768Z" fill="#D3D5E2"/>
<path d="M116.305 114.719L139.097 88.9282L161.889 112.046V153.075H116.305V114.719Z" fill="#D9DBE7"/>
<rect x="224.861" y="135.805" width="5.6393" height="6.57917" fill="#C4C4C4"/>
<rect x="231.441" y="128.815" width="5.6393" height="6.57917" fill="#C4C4C4"/>
<rect x="231.441" y="135.805" width="5.6393" height="6.57917" fill="#C4C4C4"/>
<path d="M165.178 103.731L205.358 62.6116L245.538 103.731V153.075H165.178V103.731Z" fill="#D3D5E2"/>
<path d="M165.178 106.199L205.358 67.1347L245.538 106.199V153.075H165.178V106.199Z" fill="#D9DBE7"/>
<path d="M131.342 108.217L171.522 70.8355L211.702 108.217V153.075H131.342V108.217Z" fill="#D3D5E2"/>
<path d="M135.572 110.684L171.523 75.3587L207.473 110.684V153.075H135.572V110.684Z" fill="#D9DBE7"/>
<path d="M184.916 121.674L210.058 95.5073L235.2 121.674V153.075H184.916V121.674Z" fill="#D3D5E2"/>
<path d="M187.268 123.245L210.06 98.3859L232.852 123.245V153.075H187.268V123.245Z" fill="#D9DBE7"/>
<rect x="165.178" y="92.629" width="4.22947" height="5.75678" fill="#E1E4F2"/>
<rect x="165.178" y="98.7971" width="4.22947" height="5.75678" fill="#E1E4F2"/>
<rect x="170.346" y="92.629" width="4.22947" height="5.75678" fill="#E1E4F2"/>
<rect x="170.346" y="98.7971" width="4.22947" height="5.75678" fill="#E1E4F2"/>
<rect x="198.074" y="127.581" width="4.22947" height="5.75678" fill="#E1E4F2"/>
<rect x="198.074" y="133.749" width="4.22947" height="5.75678" fill="#E1E4F2"/>
<rect x="203.246" y="127.581" width="4.22947" height="5.75678" fill="#E1E4F2"/>
<rect x="203.246" y="133.749" width="4.22947" height="5.75678" fill="#E1E4F2"/>
<rect x="137.922" y="123.058" width="4.22947" height="5.75678" fill="#E1E4F2"/>
<rect x="137.922" y="129.226" width="4.22947" height="5.75678" fill="#E1E4F2"/>
<rect x="143.092" y="123.058" width="4.22947" height="5.75678" fill="#E1E4F2"/>
<rect x="143.092" y="129.226" width="4.22947" height="5.75678" fill="#E1E4F2"/>
<rect x="137.922" y="136.216" width="4.22947" height="5.75678" fill="#E1E4F2"/>
<rect x="137.922" y="142.384" width="4.22947" height="5.75678" fill="#E1E4F2"/>
<rect x="143.092" y="136.216" width="4.22947" height="5.75678" fill="#E1E4F2"/>
<rect x="143.092" y="142.384" width="4.22947" height="5.75678" fill="#E1E4F2"/>
<rect x="149.67" y="136.216" width="4.22947" height="5.75678" fill="#E1E4F2"/>
<rect x="149.67" y="142.384" width="4.22947" height="5.75678" fill="#E1E4F2"/>
<rect x="154.838" y="136.216" width="4.22947" height="5.75678" fill="#E1E4F2"/>
<rect x="154.838" y="142.384" width="4.22947" height="5.75678" fill="#E1E4F2"/>
<rect x="149.67" y="123.058" width="4.22947" height="5.75678" fill="#E1E4F2"/>
<rect x="149.67" y="129.226" width="4.22947" height="5.75678" fill="#E1E4F2"/>
<rect x="154.838" y="123.058" width="4.22947" height="5.75678" fill="#E1E4F2"/>
<rect x="154.838" y="129.226" width="4.22947" height="5.75678" fill="#E1E4F2"/>
<rect x="214.525" y="127.581" width="4.22947" height="5.75678" fill="#E1E4F2"/>
<rect x="214.525" y="133.749" width="4.22947" height="5.75678" fill="#E1E4F2"/>
<rect x="219.691" y="127.581" width="4.22947" height="5.75678" fill="#E1E4F2"/>
<rect x="219.691" y="133.749" width="4.22947" height="5.75678" fill="#E1E4F2"/>
</g>
</g>
<path d="M128.682 123.648L116.752 118.165L121.916 110.244L127.525 110.89L140.562 77.5505L140.741 62.8998L153.477 60.7955L149.579 75.2374L142.721 116.212C141.633 122.71 134.668 126.399 128.682 123.648Z" fill="#D9DBE7"/>
<path d="M131.482 104.277L121.381 88.2841L126.01 122.374L131.482 104.277Z" fill="#B0B2BB"/>
<path d="M122.643 49.5649C123.484 50.8275 124.326 64.295 116.751 66.8202C110.297 69.4856 96.7172 74.3957 94.0237 72.7122C90.6568 70.6079 91.9194 61.7699 91.9194 59.6656C91.9194 57.5613 92.3407 52.5109 96.5493 52.9318C96.1284 52.5109 97.8118 49.5649 98.2327 48.7232C98.6536 47.8815 121.801 48.3023 122.643 49.5649Z" fill="#6E7078"/>
<path d="M99.0737 85.3381C102.861 85.1978 112.625 85.5906 121.379 88.2841L123.484 90.3884L128.534 98.3847L126.43 120.69L128.534 152.255H75.9264C75.5055 135 75.4214 99.6473 78.4516 96.2804C81.4817 92.9135 93.4622 87.5826 99.0737 85.3381Z" fill="#B0B2BB"/>
<path d="M99.916 112.694C99.916 105.118 98.8218 89.21 92.7614 87.8632L89.3945 89.5467C94.4449 91.9035 96.4089 105.96 96.5492 112.694H99.916Z" fill="#8E909A"/>
<path fill-rule="evenodd" clip-rule="evenodd" d="M120.38 87.9868C123 93.4801 122.698 104.325 122.183 110.157L118.829 109.86C119.263 103.429 118.622 90.1684 114.338 86.5941C116.336 86.957 118.377 87.4143 120.38 87.9868Z" fill="#8E909A"/>
<path d="M98.233 139.629C93.6035 135.14 84.0921 124.057 83.082 115.64L101.6 131.633L98.233 139.629Z" fill="#A1A4B3"/>
<path d="M121.802 108.065L95.2877 110.169L91.5 151.834H128.536L125.59 108.065H121.802Z" fill="#8E909A"/>
<path d="M99.9179 68.0827L100.655 62.4306C100.87 60.7852 103.321 59.483 104.959 59.7465C108.81 60.366 114.413 60.2791 117.594 60.0864C117.734 65.4173 117.93 76.4158 117.594 77.7625C117.257 79.1093 114.087 80.0071 112.543 80.2877V89.5466C112.543 89.5466 112.964 92.9135 105.81 93.3344C98.655 93.7552 97.8133 90.3883 97.8133 90.3883C97.8134 90.8092 97.6453 88.5366 96.9719 76.0791C91.0798 74.3957 94.4467 68.0827 96.1302 67.241C97.4769 66.5676 99.2165 67.5216 99.9179 68.0827Z" fill="#D9DBE7"/>
<path d="M92.7611 140.05H75.5059V145.521L92.7611 144.679V140.05Z" fill="#8E909A"/>
<path d="M155.356 56.4935L157.061 52.91" stroke="#6E7078" stroke-linecap="round"/>
<path d="M156.424 58.434L159.902 57.2004" stroke="#6E7078" stroke-linecap="round"/>
<path d="M152.779 56.7006L151.541 53.224" stroke="#6E7078" stroke-linecap="round"/>
<path d="M153.786 59.2447L131.043 61.7699L118.17 63.8742V72.7122L153.786 76.0791V59.2447Z" fill="#6E7078"/>
<path d="M112.592 64.7159H118.599V72.2914H112.592V64.7159Z" fill="#6E7078"/>
<path d="M112.592 66.3993H110.017V70.6079H112.592V66.3993Z" fill="#6E7078"/>
<path d="M147.779 75.4851V59.9058L150.354 59.6655V75.6582L147.779 75.4851Z" fill="#6E7078"/>
<path d="M109.396 124.984L103.16 123.842L102.867 108.273L108.477 108.918L129.931 75.5788L128.957 62.1908L134.428 58.8239L144.95 60.0864L142.425 60.9282L140.933 73.8131L120.303 119.279C118.407 123.458 113.91 125.81 109.396 124.984Z" fill="#D9DBE7"/>
<path d="M109.176 106.802L81.1876 95.4387L81.1879 118.852L102.022 128.687L109.176 106.802Z" fill="#B0B2BB"/>
<path d="M97.5763 222.192C102.248 222.192 104.584 224.08 104.584 227.856C104.584 231.696 102.248 233.616 97.5763 233.616H94.0243V239.088C94.0243 241.52 93.3523 243.376 92.0083 244.656C90.6643 245.936 88.9043 246.576 86.7283 246.576C84.5523 246.576 82.7923 245.936 81.4483 244.656C80.1043 243.376 79.4323 241.52 79.4323 239.088V233.616H56.1043C54.1203 233.616 52.5523 233.04 51.4003 231.888C50.2483 230.672 49.6723 229.168 49.6723 227.376C49.6723 225.584 50.2803 223.792 51.4963 222L80.1043 181.104C80.8723 180.016 81.8323 179.216 82.9843 178.704C84.1363 178.128 85.3523 177.84 86.6323 177.84C88.6163 177.84 90.3443 178.512 91.8163 179.856C93.2883 181.136 94.0243 182.928 94.0243 185.232V222.192H97.5763ZM79.4323 222.192V201.072L64.7443 222.192H79.4323ZM134.019 246.864C125.827 246.864 119.555 243.888 115.203 237.936C110.915 231.984 108.771 223.376 108.771 212.112C108.771 200.912 110.915 192.336 115.203 186.384C119.555 180.432 125.827 177.456 134.019 177.456C142.211 177.456 148.451 180.432 152.739 186.384C157.091 192.336 159.267 200.912 159.267 212.112C159.267 223.376 157.091 231.984 152.739 237.936C148.451 243.888 142.211 246.864 134.019 246.864ZM134.019 235.44C137.731 235.44 140.419 233.584 142.083 229.872C143.811 226.16 144.675 220.24 144.675 212.112C144.675 203.92 143.811 198 142.083 194.352C140.419 190.704 137.731 188.88 134.019 188.88C130.307 188.88 127.587 190.736 125.859 194.448C124.195 198.096 123.363 203.984 123.363 212.112C123.363 220.24 124.195 226.16 125.859 229.872C127.587 233.584 130.307 235.44 134.019 235.44ZM212.701 222.192C217.373 222.192 219.709 224.08 219.709 227.856C219.709 231.696 217.373 233.616 212.701 233.616H209.149V239.088C209.149 241.52 208.477 243.376 207.133 244.656C205.789 245.936 204.029 246.576 201.853 246.576C199.677 246.576 197.917 245.936 196.573 244.656C195.229 243.376 194.557 241.52 194.557 239.088V233.616H171.229C169.245 233.616 167.677 233.04 166.525 231.888C165.373 230.672 164.797 229.168 164.797 227.376C164.797 225.584 165.405 223.792 166.621 222L195.229 181.104C195.997 180.016 196.957 179.216 198.109 178.704C199.261 178.128 200.477 177.84 201.757 177.84C203.741 177.84 205.469 178.512 206.941 179.856C208.413 181.136 209.149 182.928 209.149 185.232V222.192H212.701ZM194.557 222.192V201.072L179.869 222.192H194.557Z" fill="#8E909A"/>
</svg>
