<svg xmlns="http://www.w3.org/2000/svg" viewBox="0 0 795.52 252.12"><defs><style>.cls-1{fill:#f04b32;}</style></defs><title>Qasir-White</title><g id="Layer_2" data-name="Layer 2"><g id="Layer_1-2" data-name="Layer 1"><g id="Layer_1-2-2" data-name="Layer 1-2"><path class="cls-1" d="M398.31,247.76c-.67-8.17-1-16.34-1-24.58h-.67a59,59,0,0,1-24.24,22.23,76.82,76.82,0,0,1-32.41,6.7,75.84,75.84,0,0,1-21.49-3,53.58,53.58,0,0,1-17.95-9.24,44.92,44.92,0,0,1-11.78-15.54,46.66,46.66,0,0,1-4.42-21,46.21,46.21,0,0,1,7-26.24,51.87,51.87,0,0,1,19.08-17.28,91.68,91.68,0,0,1,28.32-9.51,195.13,195.13,0,0,1,34.29-3H395.9v-6.7a33.47,33.47,0,0,0-21.49-31.2,44.89,44.89,0,0,0-17-2.88,62.87,62.87,0,0,0-15.53,1.67,70.94,70.94,0,0,0-12.12,4.29,49.12,49.12,0,0,0-9.91,6l-8.51,6.69L292.58,105.8a85.93,85.93,0,0,1,30-17.94,103.5,103.5,0,0,1,34.15-6,94.06,94.06,0,0,1,30.53,4.42,60.13,60.13,0,0,1,21,11.92,47.67,47.67,0,0,1,12.12,17.27,53.64,53.64,0,0,1,3.89,20.09V247.76ZM379.23,170c-7.3,0-14.73.4-22.37,1.14A88,88,0,0,0,336,175.71a40.11,40.11,0,0,0-15.33,9.57,21.31,21.31,0,0,0-6,15.61A22.14,22.14,0,0,0,324.12,221a45.85,45.85,0,0,0,25.38,6.16,50,50,0,0,0,21.56-4.28,41.42,41.42,0,0,0,14.33-11.12,43.59,43.59,0,0,0,7.83-15.13,62.25,62.25,0,0,0,2.68-16.47V170Z"/><path class="cls-1" d="M554.93,126.56a48.28,48.28,0,0,0-13.39-11.38,38.78,38.78,0,0,0-19.62-4.62A37.26,37.26,0,0,0,503,115.18a14.66,14.66,0,0,0-8,13.39,15.33,15.33,0,0,0,4.62,11.58,36.46,36.46,0,0,0,10.78,7.17,63.24,63.24,0,0,0,13.4,4.08L536.52,154a143.49,143.49,0,0,1,18.55,5.83,52.26,52.26,0,0,1,14.93,8.7,39.12,39.12,0,0,1,9.84,13.4,45.29,45.29,0,0,1,3.55,18.95,44.68,44.68,0,0,1-5.83,23.37,48.67,48.67,0,0,1-15,15.86,63.34,63.34,0,0,1-21,8.91,106.29,106.29,0,0,1-23.71,2.68,94,94,0,0,1-35.35-6.09,63.28,63.28,0,0,1-26.79-22.57L479,204a96,96,0,0,0,16.67,13.39,41.49,41.49,0,0,0,22.57,5.76A59.2,59.2,0,0,0,529.82,222a37.09,37.09,0,0,0,10.58-3.75,22.85,22.85,0,0,0,7.5-6.7,14.77,14.77,0,0,0,3-9,15.7,15.7,0,0,0-4.29-11.25,30.23,30.23,0,0,0-10.24-7,75.85,75.85,0,0,0-13.19-3.88c-4.49-1-8.37-1.88-11.79-2.54a194.37,194.37,0,0,1-18.75-5.5,55.55,55.55,0,0,1-15.73-8.16,38.19,38.19,0,0,1-10.92-13,41.47,41.47,0,0,1-4.08-19.41,43.94,43.94,0,0,1,5.29-22,47.15,47.15,0,0,1,14-15.54A63,63,0,0,1,501.23,85a82.46,82.46,0,0,1,22.36-3.08A81.16,81.16,0,0,1,555,88.06a50.15,50.15,0,0,1,23.9,20.09Z"/><path class="cls-1" d="M615.66,28a21.64,21.64,0,0,1,6.7-15.87,22.29,22.29,0,0,1,31.53-.21l.21.21A21.7,21.7,0,0,1,660.8,28a21.67,21.67,0,0,1-6.7,15.86,22.29,22.29,0,0,1-31.53.21l-.21-.21A21.63,21.63,0,0,1,615.66,28Zm7.17,58h30.73V247.76H622.83Z"/><path class="cls-1" d="M702.31,86h30.74v24.91h.67a43.59,43.59,0,0,1,8.16-11.78,57.44,57.44,0,0,1,11.45-9,60.93,60.93,0,0,1,13.8-6,52.93,52.93,0,0,1,15-2.21,43.43,43.43,0,0,1,13.39,2l-1.34,33.48c-2.54-.67-5-1.28-7.5-1.74a47.2,47.2,0,0,0-7.5-.67A45.15,45.15,0,0,0,745,127.23c-8,8.37-11.91,21.49-11.91,39.24v81.29H702.31Z"/></g><path class="cls-1" d="M247.69,217.94H204.37a123.85,123.85,0,1,0-80.52,29.75H272.46ZM30.37,123.85a93.48,93.48,0,1,1,93.48,93.47A93.59,93.59,0,0,1,30.37,123.85Z"/></g></g></svg>
